<svg width="149" height="65" viewBox="0 0 149 65" fill="none" xmlns="http://www.w3.org/2000/svg">
<path d="M2.6 17.48H10.6V45H2.6V17.48ZM12.28 30.32H13.24C14.0933 30.32 14.72 30.2933 15.12 30.24C15.5467 30.16 15.88 30 16.12 29.76C16.36 29.5467 16.5067 29.24 16.56 28.84C16.64 28.4133 16.68 27.7867 16.68 26.96C16.68 26.1333 16.64 25.52 16.56 25.12C16.5067 24.6933 16.36 24.36 16.12 24.12C15.88 23.9067 15.5467 23.7733 15.12 23.72C14.6933 23.64 14.0667 23.6 13.24 23.6H12.28V17.48H15.6C17.5733 17.48 19.1733 17.68 20.4 18.08C21.6533 18.4533 22.6 19.04 23.24 19.84C23.8533 20.5867 24.2667 21.5333 24.48 22.68C24.6933 23.8 24.8 25.2267 24.8 26.96C24.8 28.6133 24.6933 29.9867 24.48 31.08C24.2933 32.1733 23.9067 33.0933 23.32 33.84C22.6533 34.6933 21.6933 35.3467 20.44 35.8C19.2133 36.2267 17.6 36.44 15.6 36.44H12.28V30.32ZM28.3813 17.48H36.3813V45H28.3813V17.48ZM38.0613 38.56H46.6213V45H38.0613V38.56ZM56.2619 17.48H56.9419L60.1019 28.44L55.5019 45H47.5019L56.2619 17.48ZM65.2619 40.12H58.5819L60.2619 33.96H63.4619L58.7419 17.48H66.0619L74.8219 45H66.6619L65.2619 40.12ZM77.4828 17.48H85.4828V45H77.4828V17.48ZM90.6859 18.6V17.48H98.6859L114.126 43.84V45H106.166L90.6859 18.6ZM106.526 27.52V17.48H114.126V40.52L106.526 27.52ZM90.6859 21.92L98.2859 34.92V45H90.6859V21.92Z" fill="black"/>
<g clip-path="url(#clip0_18_463)">
<path d="M139.312 30.048C138.912 29.984 138.336 29.952 137.584 29.952C137.088 29.952 136.736 29.984 136.528 30.048V26.568C137.664 26.584 138.84 26.728 140.056 27V30.12L139.312 30.048ZM136.36 39.192C135.112 39.192 134.12 39.04 133.384 38.736C132.648 38.432 132.104 37.984 131.752 37.392C131.432 36.88 131.224 36.28 131.128 35.592C131.048 34.904 131.008 34.008 131.008 32.904C131.008 31.896 131.048 31.056 131.128 30.384C131.208 29.712 131.376 29.12 131.632 28.608C131.936 28.016 132.392 27.56 133 27.24C133.624 26.904 134.464 26.696 135.52 26.616V32.88C135.52 33.584 135.536 34.112 135.568 34.464C135.616 34.816 135.704 35.088 135.832 35.28C135.976 35.472 136.176 35.608 136.432 35.688C136.704 35.768 137.088 35.808 137.584 35.808C138.432 35.808 139.016 35.784 139.336 35.736L140.152 35.64V38.76C138.968 39.048 137.704 39.192 136.36 39.192Z" fill="black"/>
<circle cx="136" cy="32" r="11" stroke="black" stroke-width="4"/>
</g>
<defs>
<clipPath id="clip0_18_463">
<rect width="26" height="49" fill="white" transform="translate(123 12)"/>
</clipPath>
</defs>
</svg>
